<svg version="1.1" id="Layer_1" xmlns="http://www.w3.org/2000/svg" xmlns:xlink="http://www.w3.org/1999/xlink" x="0px" y="0px"
	 width="100%" viewBox="0 0 500 500" enable-background="new 0 0 500 500" xml:space="preserve">
<path fill="#FFFFFF" opacity="1.000000" stroke="none" 
	d="
M501.000000,178.000000 
	C501.000000,285.999969 501.000000,393.499939 501.000000,500.999939 
	C334.333405,500.999939 167.666794,500.999939 1.000147,500.999969 
	C1.000098,334.333435 1.000098,167.666870 1.000049,1.000237 
	C167.666519,1.000158 334.333038,1.000158 500.999786,1.000079 
	C501.000000,59.833332 501.000000,118.666664 501.000000,178.000000 
M416.991272,225.051147 
	C416.991272,153.763306 416.991272,82.475464 416.991272,11.164283 
	C413.300629,11.164283 410.163422,11.164283 406.267609,11.015076 
	C405.499268,11.064475 404.730957,11.113875 403.503510,11.020735 
	C403.503510,11.020735 403.034027,11.123975 402.280029,10.951353 
	C401.513092,11.008894 400.746185,11.066435 399.050842,11.008750 
	C295.066101,11.008750 191.081360,11.008750 87.000000,11.008750 
	C87.000000,54.817238 86.985275,97.939201 87.005348,141.061157 
	C87.018066,168.367355 87.082649,195.673508 86.951279,223.860260 
	C87.008842,226.249496 87.066406,228.638718 87.020477,231.496750 
	C87.020477,231.496750 87.162613,231.955322 87.014511,232.887909 
	C87.064102,242.604401 87.113686,252.320892 87.020729,262.496490 
	C87.020729,262.496490 87.123970,262.965973 86.951286,263.847656 
	C87.008850,266.238678 87.066406,268.629730 87.008751,271.949158 
	C87.008751,345.581787 87.008751,419.214417 87.008751,492.835754 
	C110.417000,492.835754 133.195251,492.835754 156.505646,492.970978 
	C156.683121,492.926270 156.860580,492.881531 157.959625,492.988464 
	C244.282028,492.988464 330.604431,492.988464 417.000000,492.988464 
	C417.000000,440.835846 417.012329,389.390045 416.994324,337.944244 
	C416.986298,314.969757 416.917328,291.995270 417.048828,268.114441 
	C416.991241,264.733490 416.933655,261.352539 416.979553,257.502991 
	C416.979553,257.502991 416.837402,257.044647 416.985474,256.112305 
	C416.935913,249.395737 416.886322,242.679169 416.979309,235.503281 
	C416.979309,235.503281 416.876038,235.033554 417.048798,234.141068 
	C416.991211,231.420609 416.933624,228.700134 416.991272,225.051147 
z"/>
<path fill="#231F20" opacity="1.000000" stroke="none" 
	d="
M87.123970,271.020752 
	C87.066406,268.629730 87.008850,266.238678 87.201065,263.339050 
	C87.510597,262.729492 87.645187,262.577179 87.617241,262.536530 
	C87.491051,262.352875 87.318886,262.200806 87.163269,262.037384 
	C87.113686,252.320892 87.064102,242.604401 87.242188,232.333832 
	C87.354561,231.529144 87.239265,231.278549 87.123970,231.027954 
	C87.066406,228.638718 87.008842,226.249496 87.414398,223.352722 
	C88.250267,221.999344 88.764076,221.186981 88.973915,220.302521 
	C91.069923,211.467957 92.329468,202.345169 95.321785,193.829666 
	C104.695541,167.153946 119.474243,143.921021 140.588211,124.760490 
	C151.495499,114.862343 163.453278,106.626610 176.427002,99.916107 
	C191.359726,92.192352 207.237579,86.987991 223.815521,83.945755 
	C225.277054,83.677559 227.193985,82.369156 227.702530,81.073952 
	C229.392120,76.770874 231.110001,72.333519 231.744232,67.797661 
	C232.565659,61.922813 235.728683,59.482914 241.124542,58.029625 
	C258.695740,53.297115 276.171539,48.208492 293.668671,43.203217 
	C325.489655,34.100437 357.313721,25.007803 389.095276,15.768980 
	C392.855591,14.675866 396.357544,12.693906 399.979248,11.123975 
	C400.746185,11.066435 401.513092,11.008894 402.724792,11.201105 
	C403.433929,11.354994 403.698273,11.259131 403.962616,11.163273 
	C404.730957,11.113875 405.499268,11.064475 406.599670,11.434547 
	C406.666412,12.461482 406.470642,13.111919 406.125702,13.670203 
	C391.221283,37.793297 376.306580,61.910053 361.386017,86.023170 
	C356.344849,94.170166 351.284790,102.305504 346.077209,110.697868 
	C351.731903,115.278038 357.327454,119.402962 362.456635,124.043427 
	C376.233337,136.507523 387.516907,151.019592 396.536987,167.243759 
	C405.145782,182.728104 411.170349,199.154175 414.080963,216.696518 
	C414.605591,219.858444 415.924072,222.888657 416.876038,225.979675 
	C416.933624,228.700134 416.991211,231.420609 416.799011,234.655258 
	C416.489441,235.270355 416.354767,235.422699 416.382690,235.463364 
	C416.508881,235.647049 416.681091,235.799133 416.836731,235.962601 
	C416.886322,242.679169 416.935913,249.395737 416.757812,256.666260 
	C416.645477,257.470703 416.760742,257.721130 416.876038,257.971588 
	C416.933655,261.352539 416.991241,264.733490 416.585632,268.634705 
	C415.414215,271.950592 414.550293,274.717133 414.021454,277.546326 
	C407.977692,309.879944 393.715973,338.188904 370.632690,361.461578 
	C360.700348,371.475464 349.086243,380.105316 337.278137,387.915497 
	C312.742645,404.143921 284.940613,410.848022 255.881454,411.778900 
	C244.409668,412.146393 232.859543,410.026215 221.342789,409.066437 
	C218.821899,408.856354 216.779694,408.268097 214.644470,411.334900 
	C195.635773,438.636902 176.286758,465.701904 157.038055,492.836792 
	C156.860580,492.881531 156.683121,492.926270 156.254974,492.525696 
	C156.317627,490.969299 156.545715,489.825592 156.956741,488.751892 
	C166.607407,463.540802 176.286697,438.340698 185.935944,413.129059 
	C187.560684,408.883911 189.071320,404.595123 190.605377,400.406555 
	C189.291214,399.705200 188.586746,399.244049 187.821289,398.933044 
	C163.204849,388.931488 142.658051,373.509979 125.561218,353.170135 
	C107.248779,331.384094 95.236420,306.738739 89.900749,278.787628 
	C89.391373,276.119202 88.068947,273.606018 87.123970,271.020752 
M223.424240,373.753510 
	C223.411987,373.390167 223.399750,373.026794 223.387527,372.663452 
	C223.263138,373.112213 223.138763,373.560944 222.573578,374.242584 
	C222.587067,374.607208 222.600555,374.971863 222.614044,375.336487 
	C222.737549,374.885681 222.861038,374.434906 223.424240,373.753510 
M214.706711,385.944427 
	C219.339615,381.072235 219.462769,380.566498 216.207748,378.577148 
	C215.453201,381.094360 214.719421,383.542328 213.501968,386.326691 
	C213.412048,386.938385 213.322128,387.550079 213.232208,388.161774 
	C213.440796,388.185211 213.649384,388.208649 213.857986,388.232056 
	C213.911987,387.494476 213.965988,386.756866 214.706711,385.944427 
M278.465118,321.923676 
	C275.832336,325.538483 273.301849,329.233582 270.542542,332.749054 
	C266.503723,337.894684 262.631622,342.984131 264.936432,350.188843 
	C265.246521,351.158203 264.721558,352.394745 264.565094,353.653778 
	C262.054047,353.912018 259.799835,354.143829 257.315674,354.399292 
	C257.315674,361.575470 257.315674,368.471130 257.315674,375.642151 
	C260.302063,375.907867 263.011322,376.148956 266.264099,376.438385 
	C266.264099,382.848297 266.264099,388.759674 266.264099,394.666260 
	C329.422974,391.579010 395.241058,334.910889 399.934418,259.854065 
	C393.484985,259.854065 387.055450,259.854065 380.405365,259.854065 
	C380.097382,257.035583 379.837769,254.659622 379.594940,252.437561 
	C372.486725,252.437561 365.921509,252.437561 359.268402,252.437561 
	C359.052673,255.448395 358.867615,258.030670 358.682800,260.609741 
	C355.263214,260.609741 352.365143,260.609741 349.308502,260.609741 
	C349.071350,257.656677 348.864136,255.076050 348.619904,252.034760 
	C342.146057,252.034760 336.008362,251.838730 329.899902,252.174332 
	C328.397217,252.256882 326.569702,253.773804 325.601196,255.135925 
	C309.950745,277.146729 294.415009,299.239105 278.465118,321.923676 
M153.997818,257.400513 
	C153.137680,261.461151 151.075012,262.057465 144.249405,260.118195 
	C144.063232,257.602264 143.872406,255.023346 143.675400,252.360886 
	C136.647308,252.360886 130.086700,252.360886 123.361153,252.360886 
	C123.092331,254.947906 122.858627,257.196991 122.547401,260.192139 
	C115.998322,260.192139 109.645126,260.192139 103.274727,260.192139 
	C108.473007,321.047791 151.469635,368.590790 196.663010,384.952820 
	C210.722015,348.171783 224.785034,311.380249 239.173325,273.737762 
	C213.336746,279.774750 188.656250,285.541626 163.101471,291.512787 
	C167.237915,277.825012 171.045364,265.225922 175.042053,252.000565 
	C169.031784,252.000565 163.722778,252.193542 158.436111,251.933029 
	C154.884872,251.758041 153.507065,253.053375 153.997818,257.400513 
M126.745132,241.998535 
	C132.345139,241.998535 137.945160,241.998535 143.651016,241.998535 
	C143.924850,238.658264 144.136520,236.076279 144.360840,233.339996 
	C147.630981,233.339996 150.528320,233.339996 153.653275,233.339996 
	C153.895264,236.235504 154.110992,238.816727 154.377029,242.000000 
	C160.069412,242.000000 165.564346,241.553802 170.952484,242.121399 
	C176.718018,242.728760 178.988113,240.461792 180.603287,235.073349 
	C191.930405,197.284225 203.603546,159.598892 215.146042,121.874245 
	C217.197479,115.169502 219.155884,108.436295 221.270660,101.335464 
	C163.022522,111.243019 107.097237,167.678024 104.010574,233.270599 
	C110.250938,233.270599 116.476501,233.270599 121.886963,233.270599 
	C124.548668,236.284882 120.357361,241.019485 126.745132,241.998535 
M329.148804,98.689323 
	C328.410461,99.986748 327.705933,101.304817 326.928650,102.578484 
	C316.387665,119.851578 305.833984,137.116928 295.288574,154.387329 
	C280.248901,179.018158 265.206451,203.647293 250.182587,228.287735 
	C247.387497,232.871948 244.674362,237.506165 241.923416,242.117294 
	C242.206284,242.495407 242.489151,242.873535 242.772018,243.251648 
	C269.971130,236.489944 297.170227,229.728241 324.369324,222.966553 
	C324.563293,223.365814 324.757233,223.765076 324.951202,224.164337 
	C298.266449,263.108337 271.581726,302.052307 244.897003,340.996277 
	C245.417648,341.355560 245.938309,341.714844 246.458969,342.074097 
	C276.284546,300.041351 306.110107,258.008606 336.786011,214.777527 
	C308.336151,221.376541 281.456055,227.611450 254.575958,233.846359 
	C254.331436,233.470642 254.086914,233.094910 253.842392,232.719193 
	C293.908203,167.868210 333.974030,103.017242 374.653168,37.173534 
	C368.448090,38.895420 363.663055,40.174561 358.906158,41.550999 
	C322.785217,52.002918 286.653717,62.419586 250.593277,73.076454 
	C248.473221,73.702995 245.935181,75.998047 245.288101,78.051285 
	C238.464218,99.704086 232.052200,121.486122 225.396606,143.192657 
	C214.218674,179.648315 202.938461,216.072601 191.721283,252.516235 
	C189.799393,258.760284 187.976883,265.034943 185.909760,271.961182 
	C212.252640,265.819031 237.713959,259.882446 264.088867,253.732834 
	C248.763123,293.842072 233.837662,332.903748 218.912201,371.965424 
	C219.262756,372.108154 219.613312,372.250885 219.963882,372.393585 
	C238.978531,330.535461 257.993195,288.677307 277.319122,246.133911 
	C249.790588,252.257553 223.399353,258.128204 196.383820,264.137726 
	C198.771606,256.275055 200.807877,248.989319 203.190292,241.818588 
	C219.470352,192.818207 235.855606,143.852722 252.078278,94.833420 
	C253.145706,91.608032 254.896500,90.062416 258.018616,89.051956 
	C282.494568,81.130447 306.911835,73.027710 331.370209,65.051399 
	C338.392853,62.761181 345.490814,60.701698 354.084106,58.067451 
	C345.388763,72.238014 337.463623,85.153435 329.148804,98.689323 
M337.023956,239.446762 
	C336.553253,240.060303 336.082550,240.673843 335.334320,241.649109 
	C340.074829,241.649109 344.260376,241.649109 348.657135,241.649109 
	C348.899933,238.739578 349.115387,236.157578 349.338593,233.482513 
	C352.673828,233.482513 355.683258,233.482513 358.719849,233.482513 
	C358.964569,236.536819 359.170959,239.112869 359.367889,241.570740 
	C366.493103,241.570740 373.058899,241.570740 379.724091,241.570740 
	C379.942535,238.569885 380.130615,235.986191 380.358826,232.851013 
	C387.056122,232.851013 393.301208,232.851013 399.428558,232.851013 
	C403.900665,203.375031 364.230774,135.529236 336.902802,125.548698 
	C319.926758,153.027924 302.918793,180.558868 285.910828,208.089798 
	C286.210175,208.506195 286.509491,208.922577 286.808838,209.338974 
	C314.659668,202.866837 342.510468,196.394699 370.361298,189.922562 
	C370.580902,190.288406 370.800537,190.654251 371.020172,191.020081 
	C359.841583,206.980209 348.662994,222.940338 337.023956,239.446762 
M232.944778,394.976105 
	C234.513351,394.873169 236.081940,394.770264 237.804565,394.657227 
	C237.804565,389.425354 237.804565,384.739441 237.804565,379.063934 
	C234.026245,384.346832 230.771286,388.897980 227.455688,393.533905 
	C229.305283,394.070374 230.719650,394.480591 232.944778,394.976105 
M241.853760,345.319763 
	C241.316208,346.324799 240.778656,347.329834 240.241104,348.334869 
	C240.618134,348.564606 240.995178,348.794342 241.372208,349.024078 
	C242.587555,347.347626 243.802902,345.671173 245.018265,343.994690 
	C244.736374,343.734253 244.454483,343.473785 244.172592,343.213348 
	C243.493958,343.711578 242.815338,344.209839 241.853760,345.319763 
M238.782883,350.353485 
	C238.731415,350.729034 238.679962,351.104553 238.628494,351.480103 
	C238.893433,351.480255 239.158356,351.480408 239.423294,351.480591 
	C239.384979,351.102570 239.346664,350.724548 238.782883,350.353485 
M237.311417,353.381683 
	C237.010406,353.610962 236.709396,353.840240 236.408371,354.069489 
	C236.589432,354.263245 236.770493,354.456970 236.951553,354.650726 
	C237.188141,354.355682 237.424713,354.060608 237.311417,353.381683 
M234.401215,356.691559 
	C234.622284,356.994385 234.843353,357.297211 235.064423,357.600006 
	C235.255310,357.412872 235.446198,357.225708 235.637085,357.038574 
	C235.349091,356.801819 235.061096,356.565033 234.401215,356.691559 
M231.401215,360.691559 
	C231.622284,360.994385 231.843353,361.297180 232.064438,361.600006 
	C232.255325,361.412872 232.446213,361.225739 232.637070,361.038574 
	C232.349091,360.801819 232.061096,360.565063 231.401215,360.691559 
M229.362839,364.222198 
	C229.731598,364.270966 230.100357,364.319733 230.469101,364.368500 
	C230.473190,364.100342 230.477280,363.832214 230.481384,363.564056 
	C230.110626,363.608246 229.739883,363.652435 229.362839,364.222198 
M220.135391,377.980896 
	C220.400314,377.819244 220.798523,377.709290 220.887634,377.479431 
	C220.958023,377.297882 220.648392,376.968994 220.507523,376.705536 
	C220.361649,376.971130 220.215759,377.236755 220.135391,377.980896 
M225.461304,371.288300 
	C225.599899,370.872009 225.760254,370.460693 225.858185,370.035065 
	C225.877121,369.952789 225.651932,369.814331 225.539368,369.701813 
	C225.401016,370.118011 225.262665,370.534210 225.461304,371.288300 
M227.135391,367.980896 
	C227.400299,367.819244 227.798553,367.709259 227.887650,367.479431 
	C227.958023,367.297882 227.648392,366.968994 227.507538,366.705536 
	C227.361649,366.971161 227.215759,367.236755 227.135391,367.980896 
z"/>
<path fill="#000000" opacity="1.000000" stroke="none" 
	d="
M157.498840,492.912628 
	C176.286758,465.701904 195.635773,438.636902 214.644470,411.334900 
	C216.779694,408.268097 218.821899,408.856354 221.342789,409.066437 
	C232.859543,410.026215 244.409668,412.146393 255.881454,411.778900 
	C284.940613,410.848022 312.742645,404.143921 337.278137,387.915497 
	C349.086243,380.105316 360.700348,371.475464 370.632690,361.461578 
	C393.715973,338.188904 407.977692,309.879944 414.021454,277.546326 
	C414.550293,274.717133 415.414215,271.950592 416.499237,269.087860 
	C416.917328,291.995270 416.986298,314.969757 416.994324,337.944244 
	C417.012329,389.390045 417.000000,440.835846 417.000000,492.988464 
	C330.604431,492.988464 244.282028,492.988464 157.498840,492.912628 
z"/>
<path fill="#000000" opacity="1.000000" stroke="none" 
	d="
M399.515045,11.066361 
	C396.357544,12.693906 392.855591,14.675866 389.095276,15.768980 
	C357.313721,25.007803 325.489655,34.100437 293.668671,43.203217 
	C276.171539,48.208492 258.695740,53.297115 241.124542,58.029625 
	C235.728683,59.482914 232.565659,61.922813 231.744232,67.797661 
	C231.110001,72.333519 229.392120,76.770874 227.702530,81.073952 
	C227.193985,82.369156 225.277054,83.677559 223.815521,83.945755 
	C207.237579,86.987991 191.359726,92.192352 176.427002,99.916107 
	C163.453278,106.626610 151.495499,114.862343 140.588211,124.760490 
	C119.474243,143.921021 104.695541,167.153946 95.321785,193.829666 
	C92.329468,202.345169 91.069923,211.467957 88.973915,220.302521 
	C88.764076,221.186981 88.250267,221.999344 87.500748,222.912430 
	C87.082649,195.673508 87.018066,168.367355 87.005348,141.061157 
	C86.985275,97.939201 87.000000,54.817238 87.000000,11.008750 
	C191.081360,11.008750 295.066101,11.008750 399.515045,11.066361 
z"/>
<path fill="#000000" opacity="1.000000" stroke="none" 
	d="
M87.066360,271.484955 
	C88.068947,273.606018 89.391373,276.119202 89.900749,278.787628 
	C95.236420,306.738739 107.248779,331.384094 125.561218,353.170135 
	C142.658051,373.509979 163.204849,388.931488 187.821289,398.933044 
	C188.586746,399.244049 189.291214,399.705200 190.605377,400.406555 
	C189.071320,404.595123 187.560684,408.883911 185.935944,413.129059 
	C176.286697,438.340698 166.607407,463.540802 156.956741,488.751892 
	C156.545715,489.825592 156.317627,490.969299 155.988922,492.458069 
	C133.195251,492.835754 110.417000,492.835754 87.008751,492.835754 
	C87.008751,419.214417 87.008751,345.581787 87.066360,271.484955 
z"/>
<path fill="#000000" opacity="1.000000" stroke="none" 
	d="
M416.933655,225.515411 
	C415.924072,222.888657 414.605591,219.858444 414.080963,216.696518 
	C411.170349,199.154175 405.145782,182.728104 396.536987,167.243759 
	C387.516907,151.019592 376.233337,136.507523 362.456635,124.043427 
	C357.327454,119.402962 351.731903,115.278038 346.077209,110.697868 
	C351.284790,102.305504 356.344849,94.170166 361.386017,86.023170 
	C376.306580,61.910053 391.221283,37.793297 406.125702,13.670203 
	C406.470642,13.111919 406.666412,12.461482 406.979004,11.509151 
	C410.163422,11.164283 413.300629,11.164283 416.991272,11.164283 
	C416.991272,82.475464 416.991272,153.763306 416.933655,225.515411 
z"/>
<path fill="#000000" opacity="1.000000" stroke="none" 
	d="
M403.733063,11.092002 
	C403.698273,11.259131 403.433929,11.354994 403.101807,11.287416 
	C403.034027,11.123975 403.503510,11.020735 403.733063,11.092002 
z"/>
<path fill="#000000" opacity="1.000000" stroke="none" 
	d="
M87.091995,262.266937 
	C87.318886,262.200806 87.491051,262.352875 87.617241,262.536530 
	C87.645187,262.577179 87.510597,262.729492 87.287407,262.898193 
	C87.123970,262.965973 87.020729,262.496490 87.091995,262.266937 
z"/>
<path fill="#000000" opacity="1.000000" stroke="none" 
	d="
M416.927795,257.737305 
	C416.760742,257.721130 416.645477,257.470703 416.683777,257.132446 
	C416.837402,257.044647 416.979553,257.502991 416.927795,257.737305 
z"/>
<path fill="#000000" opacity="1.000000" stroke="none" 
	d="
M416.908020,235.732941 
	C416.681091,235.799133 416.508881,235.647049 416.382690,235.463364 
	C416.354767,235.422699 416.489441,235.270355 416.712646,235.101501 
	C416.876038,235.033554 416.979309,235.503281 416.908020,235.732941 
z"/>
<path fill="#000000" opacity="1.000000" stroke="none" 
	d="
M87.072220,231.262360 
	C87.239265,231.278549 87.354561,231.529144 87.316238,231.867523 
	C87.162613,231.955322 87.020477,231.496750 87.072220,231.262360 
z"/>
<path fill="#000000" opacity="1.000000" stroke="none" 
	d="
M278.659210,321.618347 
	C294.415009,299.239105 309.950745,277.146729 325.601196,255.135925 
	C326.569702,253.773804 328.397217,252.256882 329.899902,252.174332 
	C336.008362,251.838730 342.146057,252.034760 348.619904,252.034760 
	C348.864136,255.076050 349.071350,257.656677 349.308502,260.609741 
	C352.365143,260.609741 355.263214,260.609741 358.682800,260.609741 
	C358.867615,258.030670 359.052673,255.448395 359.268402,252.437561 
	C365.921509,252.437561 372.486725,252.437561 379.594940,252.437561 
	C379.837769,254.659622 380.097382,257.035583 380.405365,259.854065 
	C387.055450,259.854065 393.484985,259.854065 399.934418,259.854065 
	C395.241058,334.910889 329.422974,391.579010 266.264099,394.666260 
	C266.264099,388.759674 266.264099,382.848297 266.264099,376.438385 
	C263.011322,376.148956 260.302063,375.907867 257.315674,375.642151 
	C257.315674,368.471130 257.315674,361.575470 257.315674,354.399292 
	C259.799835,354.143829 262.054047,353.912018 264.565094,353.653778 
	C264.721558,352.394745 265.246521,351.158203 264.936432,350.188843 
	C262.631622,342.984131 266.503723,337.894684 270.542542,332.749054 
	C273.301849,329.233582 275.832336,325.538483 278.659210,321.618347 
z"/>
<path fill="#000000" opacity="1.000000" stroke="none" 
	d="
M153.998901,256.947754 
	C153.507065,253.053375 154.884872,251.758041 158.436111,251.933029 
	C163.722778,252.193542 169.031784,252.000565 175.042053,252.000565 
	C171.045364,265.225922 167.237915,277.825012 163.101471,291.512787 
	C188.656250,285.541626 213.336746,279.774750 239.173325,273.737762 
	C224.785034,311.380249 210.722015,348.171783 196.663010,384.952820 
	C151.469635,368.590790 108.473007,321.047791 103.274727,260.192139 
	C109.645126,260.192139 115.998322,260.192139 122.547401,260.192139 
	C122.858627,257.196991 123.092331,254.947906 123.361153,252.360886 
	C130.086700,252.360886 136.647308,252.360886 143.675400,252.360886 
	C143.872406,255.023346 144.063232,257.602264 144.249405,260.118195 
	C151.075012,262.057465 153.137680,261.461151 153.998901,256.947754 
z"/>
<path fill="#000000" opacity="1.000000" stroke="none" 
	d="
M126.278671,241.993942 
	C120.357361,241.019485 124.548668,236.284882 121.886963,233.270599 
	C116.476501,233.270599 110.250938,233.270599 104.010574,233.270599 
	C107.097237,167.678024 163.022522,111.243019 221.270660,101.335464 
	C219.155884,108.436295 217.197479,115.169502 215.146042,121.874245 
	C203.603546,159.598892 191.930405,197.284225 180.603287,235.073349 
	C178.988113,240.461792 176.718018,242.728760 170.952484,242.121399 
	C165.564346,241.553802 160.069412,242.000000 154.377029,242.000000 
	C154.110992,238.816727 153.895264,236.235504 153.653275,233.339996 
	C150.528320,233.339996 147.630981,233.339996 144.360840,233.339996 
	C144.136520,236.076279 143.924850,238.658264 143.651016,241.998535 
	C137.945160,241.998535 132.345139,241.998535 126.278671,241.993942 
z"/>
<path fill="#000000" opacity="1.000000" stroke="none" 
	/>
<path fill="#000000" opacity="1.000000" stroke="none" 
	d="
M337.254181,239.173615 
	C348.662994,222.940338 359.841583,206.980209 371.020172,191.020081 
	C370.800537,190.654251 370.580902,190.288406 370.361298,189.922562 
	C342.510468,196.394699 314.659668,202.866837 286.808838,209.338974 
	C286.509491,208.922577 286.210175,208.506195 285.910828,208.089798 
	C302.918793,180.558868 319.926758,153.027924 336.902802,125.548698 
	C364.230774,135.529236 403.900665,203.375031 399.428558,232.851013 
	C393.301208,232.851013 387.056122,232.851013 380.358826,232.851013 
	C380.130615,235.986191 379.942535,238.569885 379.724091,241.570740 
	C373.058899,241.570740 366.493103,241.570740 359.367889,241.570740 
	C359.170959,239.112869 358.964569,236.536819 358.719849,233.482513 
	C355.683258,233.482513 352.673828,233.482513 349.338593,233.482513 
	C349.115387,236.157578 348.899933,238.739578 348.657135,241.649109 
	C344.260376,241.649109 340.074829,241.649109 335.334320,241.649109 
	C336.082550,240.673843 336.553253,240.060303 337.254181,239.173615 
z"/>
<path fill="#000000" opacity="1.000000" stroke="none" 
	d="
M232.539398,394.933472 
	C230.719650,394.480591 229.305283,394.070374 227.455688,393.533905 
	C230.771286,388.897980 234.026245,384.346832 237.804565,379.063934 
	C237.804565,384.739441 237.804565,389.425354 237.804565,394.657227 
	C236.081940,394.770264 234.513351,394.873169 232.539398,394.933472 
z"/>
<path fill="#000000" opacity="1.000000" stroke="none" 
	d="
M213.985626,385.990295 
	C214.719421,383.542328 215.453201,381.094360 216.207748,378.577148 
	C219.462769,380.566498 219.339615,381.072235 214.354889,385.973572 
	C214.003052,386.002716 213.985626,385.990295 213.985626,385.990295 
z"/>
<path fill="#000000" opacity="1.000000" stroke="none" 
	d="
M241.995239,345.013916 
	C242.815338,344.209839 243.493958,343.711578 244.172592,343.213348 
	C244.454483,343.473785 244.736374,343.734253 245.018265,343.994690 
	C243.802902,345.671173 242.587555,347.347626 241.372208,349.024078 
	C240.995178,348.794342 240.618134,348.564606 240.241104,348.334869 
	C240.778656,347.329834 241.316208,346.324799 241.995239,345.013916 
z"/>
<path fill="#000000" opacity="1.000000" stroke="none" 
	d="
M239.045624,350.350006 
	C239.346664,350.724548 239.384979,351.102570 239.423294,351.480591 
	C239.158356,351.480408 238.893433,351.480255 238.628510,351.480103 
	C238.679962,351.104553 238.731415,350.729034 239.045624,350.350006 
z"/>
<path fill="#000000" opacity="1.000000" stroke="none" 
	/>
<path fill="#000000" opacity="1.000000" stroke="none" 
	d="
M234.587158,356.509918 
	C235.061096,356.565033 235.349091,356.801819 235.637085,357.038574 
	C235.446198,357.225708 235.255310,357.412872 235.064423,357.600006 
	C234.843353,357.297211 234.622284,356.994385 234.587158,356.509918 
z"/>
<path fill="#000000" opacity="1.000000" stroke="none" 
	d="
M231.587158,360.509918 
	C232.061096,360.565063 232.349091,360.801819 232.637085,361.038574 
	C232.446213,361.225739 232.255325,361.412872 232.064423,361.600006 
	C231.843353,361.297180 231.622284,360.994385 231.587158,360.509918 
z"/>
<path fill="#000000" opacity="1.000000" stroke="none" 
	d="
M229.365982,363.959412 
	C229.739883,363.652435 230.110626,363.608246 230.481384,363.564056 
	C230.477280,363.832214 230.473190,364.100342 230.469116,364.368530 
	C230.100357,364.319733 229.731598,364.270966 229.365982,363.959412 
z"/>
<path fill="#000000" opacity="1.000000" stroke="none" 
	d="
M220.102631,377.741638 
	C220.215759,377.236755 220.361649,376.971130 220.507523,376.705536 
	C220.648392,376.968994 220.958023,377.297882 220.887634,377.479431 
	C220.798523,377.709290 220.400314,377.819244 220.102631,377.741638 
z"/>
<path fill="#000000" opacity="1.000000" stroke="none" 
	d="
M225.292816,371.119354 
	C225.262665,370.534210 225.401016,370.118011 225.539368,369.701813 
	C225.651932,369.814331 225.877121,369.952789 225.858185,370.035065 
	C225.760254,370.460693 225.599899,370.872009 225.292816,371.119354 
z"/>
<path fill="#000000" opacity="1.000000" stroke="none" 
	d="
M214.011520,386.010986 
	C213.965988,386.756866 213.911987,387.494476 213.857986,388.232056 
	C213.649384,388.208649 213.440796,388.185211 213.232208,388.161774 
	C213.322128,387.550079 213.412048,386.938385 213.743805,386.158508 
	C213.985626,385.990295 214.003052,386.002716 214.011520,386.010986 
z"/>
<path fill="#000000" opacity="1.000000" stroke="none" 
	d="
M227.102631,367.741638 
	C227.215759,367.236755 227.361649,366.971161 227.507538,366.705536 
	C227.648392,366.968994 227.958023,367.297882 227.887650,367.479431 
	C227.798553,367.709259 227.400299,367.819244 227.102631,367.741638 
z"/>
<path fill="#000000" opacity="1.000000" stroke="none" 
	d="
M223.014374,374.009705 
	C223.138763,373.560944 223.263138,373.112213 223.387512,372.663452 
	C223.399750,373.026794 223.411987,373.390167 223.211441,373.876099 
	C222.998642,373.998688 223.014374,374.009705 223.014374,374.009705 
z"/>
<path fill="#000000" opacity="1.000000" stroke="none" 
	d="
M222.991592,373.991394 
	C222.861038,374.434906 222.737549,374.885681 222.614044,375.336487 
	C222.600555,374.971863 222.587067,374.607208 222.793976,374.126160 
	C223.014374,374.009705 222.998642,373.998688 222.991592,373.991394 
z"/>
</svg>